{"title":"The.Lost.And.Found.Family.2009.DVDRip.XviD-VoMiT","uid":5135655,"size":735369844,"categoryP":"video","categoryS":"movies","magnet":"?xt=urn:btih:eac38075d54f1a184306fa61efa5cc00fc51415b&amp;dn=The.Lost.And.Found.Family.2009.DVDRip.XviD-VoMiT&amp;tr=udp%3A%2F%2Ftracker.openbittorrent.com%3A80&amp;tr=udp%3A%2F%2Fopen.demonii.com%3A1337&amp;tr=udp%3A%2F%2Ftracker.coppersurfer.tk%3A6969&amp;tr=udp%3A%2F%2Fexodus.desync.com%3A6969","seeders":1,"leechers":0,"uploader":"headdock","files":5,"time":1256462821,"description":"General\nComplete name                    : The.Lost.And.Found.Family.2009.DVDRip.XviD-VoMiT\nFormat                           : AVI\nFormat/Info                      : Audio Video Interleave\nFile size                        : 701 MiB\nDuration                         : 1h 30mn\nOverall bit rate                 : 1 079 Kbps\nWriting application              : VirtualDubMod 1.5.10.2 (build 2540/release)\nWriting library                  : VirtualDubMod build 2540/release\n\nVideo\nFormat                           : MPEG-4 Visual\nFormat profile                   : Streaming Video@L1\nFormat settings, BVOP            : Yes\nFormat settings, QPel            : No\nFormat settings, GMC             : No warppoints\nFormat settings, Matrix          : Default\nCodec ID                         : XVID\nCodec ID/Hint                    : XviD\nDuration                         : 1h 30mn\nBit rate                         : 905 Kbps\nWidth                            : 640 pixels\nHeight                           : 352 pixels\nDisplay aspect ratio             : 16/9\nFrame rate                       : 23.976 fps\nResolution                       : 24 bits\nColorimetry                      : 4:2:0\nScan type                        : Progressive\nBits/(Pixel*Frame)               : 0.168\nStream size                      : 588 MiB (84%)\nWriting library                  : XviD 1.2.1 (UTC 2008-12-04)\n\nAudio\nFormat                           : MPEG Audio\nFormat version                   : Version 1\nFormat profile                   : Layer 3\nCodec ID                         : 55\nCodec ID/Hint                    : MP3\nDuration                         : 1h 30mn\nBit rate mode                    : Variable\nBit rate                         : 161 Kbps\nNominal bit rate                 : 160 Kbps\nChannel(s)                       : 2 channels\nSampling rate                    : 48.0 KHz\nResolution                       : 16 bits\nStream size                      : 105 MiB (15%)\nAlignment                        : Aligned on interleaves\nInterleave, duration             : 24 ms (0.58 video frame)\nInterleave, preload duration     : 114 ms\nWriting library                  : LAME3.90.\nEncoding settings                : ABR\n\n\n\nCast:\n\nEllen Bry         ... Ester Hobbes\n\nJustin Carpenter  ... Travis\n\nTeri Carpenter    ... Monica\n\nDella Cole        ... Doctor\n\nKen Colquit       ... Probation Officer\n\nCynthia Evans     ... Stephanie\n\nBob King          ... Mr. White\n\n\n\nPlot: N/A","torrent":{"xt":"urn:btih:eac38075d54f1a184306fa61efa5cc00fc51415b","amp;dn":"The.Lost.And.Found.Family.2009.DVDRip.XviD-VoMiT","amp;tr":["udp%3A%2F%2Ftracker.openbittorrent.com%3A80","udp%3A%2F%2Fopen.demonii.com%3A1337","udp%3A%2F%2Ftracker.coppersurfer.tk%3A6969","udp%3A%2F%2Fexodus.desync.com%3A6969"],"infoHash":"eac38075d54f1a184306fa61efa5cc00fc51415b","infoHashBuffer":{"type":"Buffer","data":[234,195,128,117,213,79,26,24,67,6,250,97,239,165,204,0,252,81,65,91]},"announce":[],"urlList":[]}}